<?xml version="1.0" encoding="UTF-8"?><svg id="Layer_2" xmlns="http://www.w3.org/2000/svg" viewBox="0 0 277.39 119.04"><defs><style>.cls-1{fill:#fff;}.cls-2{fill:#fefefe;}.cls-3{fill:#8f8a93;}.cls-4{fill:#a5a2a7;}.cls-5{fill:#c4c4c4;}.cls-6{fill:#868289;}.cls-7{fill:#574a5e;}</style></defs><g id="Layer_1-2"><g><circle class="cls-5" cx="79.36" cy="118.26" r=".78"/><circle class="cls-5" cx="30.61" cy="70.92" r=".47"/><circle class="cls-1" cx=".69" cy="17.4" r=".69"/><circle class="cls-1" cx="219.76" cy=".69" r=".69"/><circle class="cls-5" cx="248.23" cy="91.2" r=".69"/><circle class="cls-3" cx="204.75" cy="113.27" r=".28"/><circle class="cls-4" cx="238.63" cy="30.26" r=".69"/><circle class="cls-4" cx="277.1" cy="34.53" r=".3"/><circle class="cls-1" cx="95.11" cy="20.64" r=".37"/><circle class="cls-6" cx="101.86" cy="113.66" r=".42"/><g><path class="cls-7" d="M56.25,87.81h.66l1.56,4.3h-.64l-.44-1.29h-1.7l-.47,1.29h-.6l1.62-4.3Zm.96,2.54l-.65-1.9-.69,1.9h1.35Z"/><path class="cls-7" d="M62.56,87.81h.84l1.24,3.64,1.23-3.64h.83v4.3h-.56v-2.54c0-.09,0-.23,0-.44s0-.42,0-.65l-1.23,3.63h-.58l-1.24-3.63v.13c0,.11,0,.27,0,.48s0,.37,0,.48v2.54h-.56v-4.3Z"/><path class="cls-7" d="M70.12,87.81h.66l1.56,4.3h-.64l-.44-1.29h-1.7l-.47,1.29h-.6l1.62-4.3Zm.96,2.54l-.65-1.9-.69,1.9h1.35Z"/><path class="cls-7" d="M76.79,87.93c.42,.22,.68,.62,.77,1.18h-.58c-.07-.31-.21-.54-.43-.69-.22-.14-.49-.21-.82-.21-.39,0-.72,.15-.99,.45-.27,.3-.4,.74-.4,1.34,0,.51,.11,.93,.33,1.25,.22,.32,.58,.48,1.08,.48,.38,0,.7-.11,.95-.34,.25-.23,.38-.59,.38-1.09h-1.35v-.48h1.89v2.3h-.38l-.14-.55c-.19,.22-.37,.37-.52,.45-.25,.14-.57,.22-.96,.22-.5,0-.93-.17-1.29-.5-.39-.41-.59-.98-.59-1.71s.19-1.29,.58-1.72c.37-.41,.84-.61,1.42-.61,.4,0,.74,.08,1.03,.23Z"/><path class="cls-7" d="M79.42,87.81h.59v4.3h-.59v-4.3Z"/><path class="cls-7" d="M85.06,88.12c.3,.29,.46,.61,.5,.98h-.57c-.06-.28-.19-.5-.38-.66s-.45-.24-.8-.24c-.42,0-.75,.15-1.01,.45-.26,.3-.38,.75-.38,1.37,0,.5,.12,.91,.35,1.23,.23,.31,.58,.47,1.03,.47,.42,0,.74-.17,.96-.5,.12-.17,.2-.4,.26-.69h.57c-.05,.45-.22,.83-.5,1.14-.34,.37-.79,.55-1.37,.55-.49,0-.91-.15-1.25-.45-.44-.4-.66-1.02-.66-1.86,0-.63,.17-1.16,.5-1.56,.36-.44,.85-.66,1.49-.66,.54,0,.96,.14,1.25,.43Z"/><path class="cls-7" d="M88.41,87.81h.66l1.56,4.3h-.64l-.44-1.29h-1.7l-.47,1.29h-.6l1.62-4.3Zm.96,2.54l-.65-1.9-.69,1.9h1.35Z"/><path class="cls-7" d="M92.34,87.81h.58v3.79h2.16v.51h-2.74v-4.3Z"/><path class="cls-7" d="M101.35,90.83c0,.36-.05,.65-.16,.85-.2,.37-.58,.55-1.14,.55-.32,0-.6-.09-.83-.26-.23-.17-.34-.49-.34-.93v-.31h.55v.31c0,.23,.05,.41,.16,.53,.1,.12,.27,.18,.49,.18,.31,0,.51-.11,.61-.32,.06-.13,.09-.38,.09-.74v-2.87h.58v3.02Z"/><path class="cls-7" d="M106.84,88.42c.29,.38,.43,.87,.43,1.46,0,.64-.16,1.18-.49,1.6-.38,.5-.93,.75-1.64,.75-.66,0-1.18-.22-1.56-.66-.34-.42-.51-.96-.51-1.6,0-.58,.14-1.08,.43-1.49,.37-.53,.92-.8,1.65-.8s1.32,.24,1.69,.73Zm-.51,2.74c.23-.37,.34-.79,.34-1.27,0-.51-.13-.91-.4-1.22-.26-.31-.63-.46-1.09-.46s-.81,.15-1.09,.46-.42,.76-.42,1.35c0,.48,.12,.88,.36,1.21s.63,.49,1.17,.49,.89-.18,1.11-.55Z"/><path class="cls-7" d="M109.64,87.81v2.66c0,.31,.06,.57,.18,.78,.18,.31,.47,.47,.89,.47,.5,0,.84-.17,1.02-.51,.1-.18,.14-.43,.14-.74v-2.66h.59v2.42c0,.53-.07,.94-.21,1.22-.26,.52-.76,.78-1.49,.78s-1.22-.26-1.48-.78c-.14-.29-.21-.69-.21-1.22v-2.42h.59Z"/><path class="cls-7" d="M114.23,87.81h1.96c.32,0,.59,.05,.8,.14,.4,.18,.6,.52,.6,1.02,0,.26-.05,.47-.16,.63s-.26,.3-.45,.4c.17,.07,.29,.16,.38,.27s.13,.29,.14,.54l.02,.58c0,.16,.02,.29,.04,.37,.04,.14,.1,.22,.19,.26v.1h-.71s-.04-.08-.05-.14-.02-.17-.03-.34l-.04-.72c-.01-.28-.11-.47-.3-.57-.11-.05-.28-.08-.51-.08h-1.29v1.85h-.58v-4.3Zm1.89,1.97c.27,0,.48-.05,.63-.16s.23-.31,.23-.59c0-.31-.11-.52-.32-.63-.12-.06-.27-.09-.46-.09h-1.38v1.47h1.31Z"/><path class="cls-7" d="M119.43,87.81h.69l2.15,3.48v-3.48h.56v4.3h-.65l-2.18-3.47v3.47h-.56v-4.3Z"/><path class="cls-7" d="M124.64,87.81h3.12v.53h-2.55v1.31h2.36v.5h-2.36v1.46h2.6v.51h-3.17v-4.3Z"/><path class="cls-7" d="M129.19,87.81h.68l1.24,2.07,1.24-2.07h.69l-1.63,2.57v1.73h-.58v-1.73l-1.63-2.57Z"/><path class="cls-7" d="M139.96,87.81v.51h-1.45v3.79h-.59v-3.79h-1.45v-.51h3.49Z"/><path class="cls-7" d="M144.75,88.42c.29,.38,.43,.87,.43,1.46,0,.64-.16,1.18-.49,1.6-.38,.5-.93,.75-1.64,.75-.66,0-1.18-.22-1.56-.66-.34-.42-.51-.96-.51-1.6,0-.58,.14-1.08,.43-1.49,.37-.53,.92-.8,1.65-.8s1.32,.24,1.69,.73Zm-.51,2.74c.23-.37,.34-.79,.34-1.27,0-.51-.13-.91-.4-1.22-.27-.31-.63-.46-1.09-.46s-.81,.15-1.09,.46-.42,.76-.42,1.35c0,.48,.12,.88,.36,1.21s.63,.49,1.17,.49,.88-.18,1.12-.55Z"/><path class="cls-7" d="M149.28,87.81h.83l1.24,3.64,1.23-3.64h.83v4.3h-.56v-2.54c0-.09,0-.23,0-.44s0-.42,0-.65l-1.23,3.63h-.58l-1.24-3.63v.13c0,.11,0,.27,0,.48s0,.37,0,.48v2.54h-.56v-4.3Z"/><path class="cls-7" d="M155.52,87.81h3.12v.53h-2.55v1.31h2.36v.5h-2.36v1.46h2.6v.51h-3.17v-4.3Z"/><path class="cls-7" d="M160.29,87.81h.69l2.15,3.48v-3.48h.56v4.3h-.66l-2.18-3.47v3.47h-.56v-4.3Z"/><path class="cls-7" d="M168.8,87.81v.51h-1.45v3.79h-.59v-3.79h-1.45v-.51h3.49Z"/><path class="cls-7" d="M171.08,87.81h.66l1.56,4.3h-.64l-.44-1.29h-1.7l-.47,1.29h-.6l1.62-4.3Zm.96,2.54l-.65-1.9-.69,1.9h1.35Z"/><path class="cls-7" d="M174.89,87.81h.58v3.79h2.16v.51h-2.74v-4.3Z"/><path class="cls-7" d="M181.5,87.81h1.96c.32,0,.59,.05,.8,.14,.4,.18,.6,.52,.6,1.02,0,.26-.05,.47-.16,.63-.11,.16-.26,.3-.45,.4,.17,.07,.29,.16,.38,.27,.09,.11,.13,.29,.14,.54l.02,.58c0,.16,.02,.29,.04,.37,.04,.14,.1,.22,.19,.26v.1h-.71s-.04-.08-.05-.14-.02-.17-.03-.34l-.04-.72c-.01-.28-.12-.47-.3-.57-.11-.05-.28-.08-.51-.08h-1.29v1.85h-.58v-4.3Zm1.89,1.97c.27,0,.48-.05,.63-.16,.16-.11,.23-.31,.23-.59,0-.31-.11-.52-.33-.63-.12-.06-.27-.09-.46-.09h-1.38v1.47h1.31Z"/><path class="cls-7" d="M186.51,87.81h3.12v.53h-2.55v1.31h2.36v.5h-2.36v1.46h2.6v.51h-3.17v-4.3Z"/><path class="cls-7" d="M191.77,90.72c.01,.24,.07,.44,.17,.59,.19,.29,.51,.43,.99,.43,.21,0,.4-.03,.58-.09,.33-.12,.5-.34,.5-.65,0-.23-.07-.4-.21-.5-.14-.1-.37-.18-.68-.25l-.56-.13c-.37-.09-.63-.18-.78-.28-.26-.18-.4-.45-.4-.81,0-.39,.13-.7,.39-.95s.63-.37,1.11-.37c.44,0,.81,.11,1.12,.33,.31,.22,.46,.57,.46,1.04h-.55c-.03-.23-.09-.41-.18-.53-.17-.22-.46-.34-.87-.34-.33,0-.57,.07-.71,.22-.14,.14-.22,.31-.22,.5,0,.21,.08,.37,.26,.46,.11,.06,.36,.14,.76,.23l.58,.14c.28,.07,.5,.16,.65,.27,.26,.2,.4,.49,.4,.88,0,.48-.17,.82-.51,1.02-.34,.21-.73,.31-1.18,.31-.52,0-.93-.14-1.23-.41-.3-.27-.44-.64-.43-1.1h.55Z"/><path class="cls-7" d="M196.22,87.81h.59v4.3h-.59v-4.3Z"/><path class="cls-7" d="M198.45,87.81h.58v3.79h2.16v.51h-2.74v-4.3Z"/><path class="cls-7" d="M202.86,87.81h.59v4.3h-.59v-4.3Z"/><path class="cls-7" d="M205.15,87.81h3.12v.53h-2.55v1.31h2.36v.5h-2.36v1.46h2.6v.51h-3.17v-4.3Z"/><path class="cls-7" d="M210.03,87.81h.69l2.15,3.48v-3.48h.56v4.3h-.66l-2.18-3.47v3.47h-.56v-4.3Z"/><path class="cls-7" d="M218.46,88.12c.3,.29,.46,.61,.5,.98h-.57c-.06-.28-.19-.5-.38-.66-.19-.16-.45-.24-.8-.24-.42,0-.75,.15-1.01,.45-.26,.3-.38,.75-.38,1.37,0,.5,.12,.91,.35,1.23s.58,.47,1.04,.47c.42,0,.74-.17,.96-.5,.12-.17,.2-.4,.26-.69h.57c-.05,.45-.22,.83-.5,1.14-.34,.37-.79,.55-1.37,.55-.49,0-.91-.15-1.25-.45-.44-.4-.66-1.02-.66-1.86,0-.63,.17-1.16,.5-1.56,.36-.44,.85-.66,1.49-.66,.54,0,.96,.14,1.25,.43Z"/><path class="cls-7" d="M220.74,87.81h3.12v.53h-2.55v1.31h2.36v.5h-2.36v1.46h2.6v.51h-3.17v-4.3Z"/></g><g><path class="cls-2" d="M53.71,74.19c.72-.2,1.29-.47,1.71-.81,.42-.34,.74-.97,.96-1.89,.22-.92,.35-2.27,.39-4.04,.04-1.78,.06-4.22,.06-7.34v-15.64c0-3.07-.02-5.5-.06-7.28-.04-1.78-.17-3.13-.39-4.04-.22-.92-.54-1.55-.96-1.89s-.99-.63-1.71-.87v-.6h15.48c4.88,0,8.63,.92,11.25,2.76,2.62,1.84,3.93,4.32,3.93,7.44,0,1.16-.19,2.3-.57,3.42-.38,1.12-1.01,2.14-1.89,3.06-.88,.92-2.04,1.71-3.48,2.37-1.44,.66-3.24,1.09-5.4,1.29v.18c2.68,.32,4.88,.87,6.6,1.65,1.72,.78,3.09,1.68,4.11,2.7s1.73,2.13,2.13,3.33c.4,1.2,.6,2.36,.6,3.48,0,2.28-.48,4.26-1.44,5.94s-2.28,3.07-3.96,4.17c-1.68,1.1-3.64,1.91-5.88,2.43-2.24,.52-4.64,.78-7.2,.78h-14.28v-.6Zm8.1-43.68v19.38h6.96c2.08,0,3.83-.18,5.25-.54,1.42-.36,2.56-.92,3.42-1.68,.86-.76,1.48-1.75,1.86-2.97,.38-1.22,.57-2.69,.57-4.41,0-3-.83-5.38-2.49-7.14-1.66-1.76-4.41-2.64-8.25-2.64h-7.32Zm0,20.1v23.46h5.88c2.16,0,4.09-.18,5.79-.54,1.7-.36,3.12-.99,4.26-1.89,1.14-.9,2.01-2.14,2.61-3.72,.6-1.58,.9-3.61,.9-6.09,0-1.68-.13-3.2-.39-4.56-.26-1.36-.82-2.54-1.68-3.54-.86-1-2.1-1.77-3.72-2.31-1.62-.54-3.81-.81-6.57-.81h-7.08Z"/><path class="cls-2" d="M105.01,75.33c-1.76,0-3.49-.3-5.19-.9-1.7-.6-3.23-1.51-4.59-2.73-1.36-1.22-2.45-2.76-3.27-4.62-.82-1.86-1.23-4.07-1.23-6.63,0-2.32,.41-4.38,1.23-6.18,.82-1.8,1.87-3.32,3.15-4.56,1.28-1.24,2.69-2.17,4.23-2.79,1.54-.62,3.01-.93,4.41-.93,1.24,0,2.44,.17,3.6,.51,1.16,.34,2.21,.89,3.15,1.65,.94,.76,1.75,1.75,2.43,2.97,.68,1.22,1.16,2.69,1.44,4.41h-18.48c-.24,1.4-.36,2.98-.36,4.74,0,2.64,.28,4.86,.84,6.66,.56,1.8,1.32,3.25,2.28,4.35,.96,1.1,2.07,1.88,3.33,2.34,1.26,.46,2.59,.69,3.99,.69,1.68,0,3.13-.24,4.35-.72,1.22-.48,2.35-1.12,3.39-1.92l.42,.6c-1.04,.84-2.29,1.56-3.75,2.16-1.46,.6-3.25,.9-5.37,.9Zm-1.26-28.62c-.72,0-1.46,.14-2.22,.42-.76,.28-1.49,.73-2.19,1.35-.7,.62-1.34,1.45-1.92,2.49-.58,1.04-1.03,2.32-1.35,3.84h13.98c-.08-1.6-.3-2.92-.66-3.96-.36-1.04-.83-1.87-1.41-2.49-.58-.62-1.24-1.05-1.98-1.29-.74-.24-1.49-.36-2.25-.36Z"/><path class="cls-2" d="M125.89,75.21c-1.84,0-3.29-.51-4.35-1.54-1.06-1.02-1.59-2.5-1.59-4.43v-21.93h-2.46v-.6c.76-.12,1.49-.36,2.19-.72,.7-.36,1.34-.9,1.92-1.62,.58-.72,1.06-1.62,1.44-2.7,.38-1.08,.65-2.4,.81-3.96h.72v8.88h5.88v.72h-5.88v20.16c0,2.2,.15,3.84,.45,4.92s1.11,1.62,2.43,1.62c.72,0,1.35-.16,1.89-.48s.97-.66,1.29-1.02l.36,.44c-.32,.46-.87,.95-1.65,1.48-.78,.52-1.93,.79-3.45,.79Z"/><path class="cls-2" d="M135.85,53.54c-.48-1.32-.89-2.36-1.23-3.14-.34-.78-.67-1.39-.99-1.83-.32-.44-.62-.75-.9-.93-.28-.18-.6-.33-.96-.45v-.6h8.82v.6c-.44,.08-.78,.21-1.02,.39-.24,.18-.37,.49-.39,.93-.02,.44,.07,1.05,.27,1.83,.2,.78,.52,1.79,.96,3.02l5.64,16.1,5.04-12-1.38-3.94c-.48-1.31-.89-2.36-1.23-3.13-.34-.78-.66-1.38-.96-1.82-.3-.44-.59-.75-.87-.92-.28-.18-.6-.33-.96-.45v-.6h8.94v.6c-.44,.08-.79,.21-1.05,.39-.26,.18-.41,.49-.45,.93-.04,.44,.03,1.05,.21,1.83,.18,.78,.49,1.79,.93,3.02l5.46,15.62,5.28-14.3c.6-1.64,1-2.93,1.2-3.89,.2-.96,.24-1.69,.12-2.18-.12-.5-.39-.84-.81-1.02-.42-.18-.93-.31-1.53-.39v-.6h6.36v.6c-.4,.12-.75,.27-1.05,.45-.3,.18-.6,.52-.9,1.02-.3,.5-.65,1.22-1.05,2.16s-.9,2.22-1.5,3.86l-7.56,20.48h-.9l-5.88-16.68-7.08,16.68h-.84l-7.74-21.61Z"/><path class="cls-2" d="M171.91,74.19c.64-.16,1.14-.36,1.5-.6,.36-.24,.62-.65,.78-1.23,.16-.58,.26-1.38,.3-2.41,.04-1.02,.06-2.38,.06-4.06v-8.54c0-1.6,0-2.86-.03-3.76-.02-.9-.11-1.57-.27-2.02-.16-.44-.42-.73-.78-.87-.36-.14-.86-.25-1.5-.33v-.6l7.2-3.72v19.86c0,1.68,.02,3.03,.06,4.05,.04,1.02,.14,1.82,.3,2.4,.16,.58,.42,.99,.78,1.23,.36,.24,.88,.44,1.56,.6v.6h-9.96v-.6Zm4.8-33.18c-.76,0-1.41-.27-1.95-.81s-.81-1.21-.81-2.01c0-.76,.27-1.4,.81-1.92,.54-.52,1.19-.78,1.95-.78,.8,0,1.46,.26,1.98,.78,.52,.52,.78,1.16,.78,1.92,0,.8-.26,1.47-.78,2.01-.52,.54-1.18,.81-1.98,.81Z"/><path class="cls-2" d="M184.39,74.19c.64-.24,1.17-.5,1.59-.78,.42-.28,.84-.63,1.26-1.04s.88-.97,1.38-1.67c.5-.7,1.13-1.58,1.89-2.66l4.56-6.63-5.28-8.07c-.84-1.23-1.53-2.24-2.07-3.02-.54-.78-1-1.37-1.38-1.79-.38-.42-.72-.72-1.02-.9-.3-.18-.63-.33-.99-.45v-.6h9.24v.6c-.48,.08-.86,.2-1.14,.36-.28,.16-.41,.43-.39,.81,.02,.38,.18,.9,.48,1.55s.79,1.48,1.47,2.48l4.02,6.15,3.66-5.37c.84-1.19,1.44-2.16,1.8-2.89,.36-.74,.55-1.32,.57-1.76,.02-.44-.11-.75-.39-.93-.28-.18-.64-.31-1.08-.39v-.6h5.94v.6c-.56,.2-1.03,.4-1.41,.6-.38,.2-.77,.51-1.17,.93-.4,.42-.87,.99-1.41,1.7s-1.23,1.69-2.07,2.92l-4.02,5.85,5.76,8.73c.8,1.2,1.46,2.18,1.98,2.96,.52,.78,.97,1.39,1.35,1.85,.38,.46,.72,.79,1.02,.99s.61,.36,.93,.48v.6h-9v-.6c.48-.08,.85-.21,1.11-.39,.26-.18,.38-.47,.36-.87-.02-.4-.19-.92-.51-1.55-.32-.64-.8-1.45-1.44-2.45l-4.5-6.87-4.2,6.09c-1.48,2.11-2.25,3.6-2.31,4.48-.06,.88,.39,1.39,1.35,1.55v.6h-5.94v-.6Z"/><path class="cls-2" d="M219.9,75.21c-1.84,0-3.29-.51-4.35-1.54-1.06-1.02-1.59-2.5-1.59-4.43v-21.93h-2.46v-.6c.76-.12,1.49-.36,2.19-.72,.7-.36,1.34-.9,1.92-1.62,.58-.72,1.06-1.62,1.44-2.7s.65-2.4,.81-3.96h.72v8.88h5.88v.72h-5.88v20.16c0,2.2,.15,3.84,.45,4.92s1.11,1.62,2.43,1.62c.72,0,1.35-.16,1.89-.48s.97-.66,1.29-1.02l.36,.44c-.32,.46-.87,.95-1.65,1.48-.78,.52-1.93,.79-3.45,.79Z"/></g></g></g></svg>