<svg width="184" height="70" viewBox="0 0 184 70" fill="none" xmlns="http://www.w3.org/2000/svg">
<g clip-path="url(#clip0_3_200)">
<path d="M87.4369 43.3019C86.1382 41.5963 85.4712 39.09 85.4712 35.7483C85.4712 32.4068 86.1382 29.8658 87.4369 28.1949C88.7357 26.4894 90.8417 25.6539 93.7551 25.6539C95.6154 25.6539 97.4758 26.1064 99.2659 26.9767V30.7012H97.0547C97.0547 29.4132 95.9665 28.7518 93.7551 28.7518C92.1053 28.7518 90.9821 29.3436 90.3503 30.4923C89.7185 31.641 89.4376 33.4163 89.4376 35.7483C89.4376 38.0805 89.7535 39.8559 90.3503 41.0045C90.9821 42.1532 92.0703 42.745 93.6849 42.745C95.791 42.745 97.7566 42.2228 99.5117 41.1786L99.2309 44.555C97.3706 45.4252 95.5101 45.8777 93.6849 45.8777C90.8417 45.8429 88.7357 45.0075 87.4369 43.3019Z" fill="white"/>
<path d="M116.465 42.1879C116.571 42.536 116.711 42.745 116.922 42.8493C117.132 42.9538 117.483 42.9886 117.94 42.9886V45.5644H113.412L112.183 40.8305H106.497L105.268 45.5644H100.951V42.9886C101.442 42.9886 101.793 42.919 102.004 42.7797C102.214 42.6405 102.39 42.362 102.495 41.9095L106.918 25.7584H112.113L116.465 42.1879ZM110.288 33.6946C110.182 33.2422 110.042 32.6156 109.831 31.7454C109.621 30.8753 109.48 30.2835 109.375 29.9005H109.305C109.199 30.3879 109.024 31.1189 108.778 32.0587C108.533 32.9985 108.392 33.625 108.322 33.9732L107.374 37.6281H111.271L110.288 33.6946Z" fill="white"/>
<path d="M138.896 41.6659C138.896 42.2576 138.965 42.6056 139.141 42.7797C139.281 42.9537 139.772 43.0233 140.545 43.0233V45.5992H135.139V38.916C135.139 36.6535 135.21 34.7041 135.35 33.0681H135.21L131.348 45.5992H128.786L124.89 33.0681H124.75C124.89 34.7041 124.925 36.6535 124.925 38.916V45.5992H119.765V43.0233C120.537 43.0233 120.994 42.9537 121.169 42.7797C121.31 42.6056 121.415 42.2576 121.415 41.6659V29.8658C121.415 29.274 121.345 28.9259 121.169 28.7518C121.029 28.5779 120.537 28.5082 119.765 28.5082V25.9324H126.505L129.207 34.9478C129.558 36.0964 129.874 37.28 130.155 38.4635H130.26C130.576 36.8971 130.857 35.7136 131.103 34.9478L133.735 25.9324H140.51V28.5082C139.737 28.5082 139.281 28.5779 139.105 28.7518C138.965 28.9259 138.861 29.274 138.861 29.8658V41.6659H138.896Z" fill="white"/>
<path d="M143.002 45.5992V43.0233C143.774 43.0233 144.23 42.9537 144.406 42.7797C144.547 42.6056 144.652 42.2576 144.652 41.6659V29.8658C144.652 29.274 144.582 28.9259 144.406 28.7518C144.265 28.5779 143.774 28.5082 143.002 28.5082V25.9324H156.902V30.7012H154.691C154.691 29.9702 154.621 29.5176 154.445 29.3436C154.269 29.2044 153.883 29.0999 153.287 29.0999H148.477V33.9035H154.586V37.1059H148.477V42.362H153.111C153.743 42.362 154.163 42.2924 154.375 42.1183C154.621 41.9443 154.795 41.4918 154.901 40.7956H157.113L156.831 45.5645H143.002V45.5992Z" fill="white"/>
<path d="M159.5 45.5992V43.0233C160.272 43.0233 160.728 42.9537 160.904 42.7797C161.043 42.6056 161.149 42.2576 161.149 41.6659V29.8658C161.149 29.274 161.078 28.9259 160.904 28.7518C160.763 28.5779 160.272 28.5082 159.5 28.5082V25.9324H166.59V28.5082C165.818 28.5082 165.362 28.5779 165.186 28.7518C165.045 28.9259 164.94 29.274 164.94 29.8658V42.3968H169.292C169.924 42.3968 170.346 42.3272 170.556 42.1532C170.802 41.9791 170.978 41.5267 171.082 40.8305H173.294L173.013 45.5992H159.5Z" fill="white"/>
<path d="M87.3668 67.5635C85.9979 65.9275 85.2959 63.3864 85.2959 59.9056C85.2959 56.4247 85.9979 53.8489 87.3668 52.2476C88.7358 50.6116 90.9471 49.8111 93.9658 49.8111C95.8613 49.8111 97.7918 50.2636 99.7575 51.1687V55.5197H97.0197C97.0197 54.3362 96.0017 53.7444 94.001 53.7444C92.5969 53.7444 91.6492 54.2317 91.1578 55.2412C90.6664 56.2158 90.4206 57.7822 90.4206 59.9056C90.4206 62.0289 90.6664 63.5604 91.1578 64.5699C91.6492 65.5445 92.5969 66.0667 94.001 66.0667C96.107 66.0667 98.1429 65.5098 100.073 64.4307L99.7927 68.6773C97.862 69.5823 95.9315 70.0349 94.001 70.0349C90.9471 70 88.7358 69.1646 87.3668 67.5635Z" fill="white"/>
<path d="M101.758 59.7663C101.758 56.529 102.425 54.0925 103.759 52.352C105.093 50.6465 107.234 49.7762 110.147 49.7762C115.728 49.7762 118.536 53.083 118.536 59.7314C118.536 66.554 115.728 69.9651 110.147 69.9651C104.566 70 101.758 66.5887 101.758 59.7663ZM107.585 54.9975C107.094 55.8329 106.883 57.3993 106.883 59.7663C106.883 62.1332 107.129 63.7693 107.62 64.6743C108.111 65.5794 108.954 66.0318 110.182 66.0318C111.411 66.0318 112.253 65.5794 112.745 64.6743C113.236 63.7693 113.482 62.1332 113.482 59.7663C113.482 57.434 113.236 55.8329 112.78 54.9975C112.288 54.1621 111.446 53.7444 110.182 53.7444C108.919 53.7444 108.076 54.1621 107.585 54.9975Z" fill="white"/>
<path d="M120.572 66.4495C121.204 66.4495 121.59 66.3799 121.731 66.2059C121.871 66.0318 121.941 65.6837 121.941 65.092V54.719C121.941 54.4057 121.941 54.1621 121.941 54.0229C121.941 53.8836 121.871 53.7792 121.801 53.6399C121.695 53.5007 121.555 53.4311 121.38 53.3963C121.204 53.3615 120.923 53.3615 120.572 53.3615V50.0896H129.383C132.331 50.0896 134.472 50.9249 135.805 52.561C137.139 54.197 137.771 56.5988 137.771 59.8011C137.771 66.4495 134.964 69.7563 129.383 69.7563H120.572V66.4495ZM129.383 65.6141C130.611 65.6141 131.454 65.1616 131.945 64.2914C132.436 63.3863 132.682 61.8895 132.682 59.7663C132.682 57.643 132.436 56.1811 131.945 55.3804C131.454 54.5798 130.611 54.1621 129.383 54.1621H126.89V65.6141H129.383Z" fill="white"/>
<path d="M146.161 65.0572C146.161 65.3705 146.161 65.6141 146.161 65.7534C146.161 65.8926 146.231 65.9971 146.302 66.1363C146.407 66.2755 146.547 66.3451 146.722 66.3799C146.898 66.4148 147.178 66.4148 147.53 66.4148V69.6868H139.808V66.4148C140.439 66.4148 140.826 66.3451 140.966 66.1711C141.106 65.9971 141.177 65.649 141.177 65.0572V54.6843C141.177 54.371 141.177 54.1274 141.177 53.988C141.177 53.8489 141.106 53.7444 141.036 53.6052C140.931 53.466 140.791 53.3963 140.615 53.3615C140.439 53.3267 140.159 53.3267 139.808 53.3267V50.0547H147.53V53.3267C146.898 53.3267 146.513 53.3963 146.372 53.5703C146.231 53.7444 146.161 54.0925 146.161 54.6843V65.0572Z" fill="white"/>
<path d="M167.784 53.3267C167.152 53.3267 166.765 53.3963 166.626 53.5703C166.485 53.7444 166.414 54.0925 166.414 54.6843V69.6868H161.465L155.955 59.1745H155.814C155.99 60.9149 156.094 62.8294 156.094 64.9527V69.6868H150.022V66.4148C150.654 66.4148 151.04 66.3451 151.18 66.1711C151.321 65.9971 151.391 65.649 151.391 65.0572V54.6843C151.391 54.371 151.391 54.1274 151.391 53.988C151.391 53.8489 151.321 53.7444 151.251 53.6052C151.145 53.466 151.004 53.3963 150.83 53.3615C150.654 53.3267 150.373 53.3267 150.022 53.3267V50.0547H156.34L161.851 60.5668H161.992C161.816 58.8265 161.71 56.912 161.71 54.7887V50.0547H167.784V53.3267Z" fill="white"/>
<path d="M175.365 55.2412C174.874 56.2158 174.628 57.7822 174.628 59.9056C174.628 62.0289 174.874 63.5604 175.365 64.5699C175.857 65.5445 176.805 66.0667 178.208 66.0667C178.56 66.0667 178.84 66.0667 179.051 66.0318V60.184H184V68.6425C182.069 69.5476 180.139 70 178.208 70C175.19 70 173.014 69.1994 171.61 67.5635C170.241 65.9274 169.538 63.3864 169.538 59.9056C169.538 56.4247 170.241 53.8489 171.61 52.2476C172.979 50.6116 175.19 49.8111 178.208 49.8111C180.103 49.8111 182.034 50.2636 184 51.1687V55.5197H181.262C181.262 54.3362 180.244 53.7444 178.243 53.7444C176.804 53.7444 175.857 54.2317 175.365 55.2412Z" fill="white"/>
<path d="M30.8189 40.2038L22.7456 61.6112H28.2214L33.7673 46.9567L38.3656 59.1049C38.9272 60.6017 40.3664 61.5763 41.981 61.5763H44.7891L36.7158 40.1691H30.8189V40.2038Z" fill="white"/>
<path d="M21.482 40.2038H15.585L7.51172 61.6112H12.9875L18.5334 46.9567L22.3244 56.8423L25.0623 49.6021L21.482 40.2038Z" fill="white"/>
<path d="M59.3562 34.9478H55.7407L53.7048 40.2038H62.9365C63.9544 37.6977 62.094 34.9478 59.3562 34.9478Z" fill="white"/>
<path d="M51.1423 34.9478L50.37 33.9383C49.5978 32.9289 48.4043 32.3372 47.1407 32.3372C47.8077 34.008 47.8427 35.8876 47.1759 37.5932L42.5776 49.5674L45.3154 56.8075L53.7046 34.9478H51.1423Z" fill="white"/>
<path d="M67.9908 3.13277V40.2387V66.9021H3.1591V3.13277H67.9908ZM71.1148 0H67.9558H3.1591H0V3.13277V66.8672V70H3.1591H67.9908H71.15V66.8672V40.2038V3.13277V0H71.1148Z" fill="white"/>
<path d="M63.1051 58.3361C63.6531 56.035 62.2161 53.7289 59.8955 53.1856C57.575 52.6421 55.2497 54.0672 54.7017 56.3684C54.1538 58.6695 55.5907 60.9756 57.9113 61.5189C60.2319 62.0624 62.5572 60.6374 63.1051 58.3361Z" fill="#00D5FF"/>
</g>
<defs>
<clipPath id="clip0_3_200">
<rect width="184" height="70" fill="white"/>
</clipPath>
</defs>
</svg>
