<svg xmlns="http://www.w3.org/2000/svg" width="606.884" height="116.772" viewBox="0 0 606.884 116.772">
  <g id="Galaxis_black" transform="translate(-375.37 -405.156)">
    <g id="Group_1648" transform="translate(507.743 425.846)">
      <path id="Path_368" d="M424.01,143.261a20.361,20.361,0,0,0-8.475-5.827,109.312,109.312,0,0,0-13.242-3.973,80.9,80.9,0,0,1-10.859-3.178,18.039,18.039,0,0,1-6.886-3.973,8.99,8.99,0,0,1-2.648-7.151,12.425,12.425,0,0,1,5.032-9.8,25.509,25.509,0,0,1,14.567-3.708,34.959,34.959,0,0,1,10.329,1.589,41.277,41.277,0,0,1,9.8,4.5l2.648-6.356a38.234,38.234,0,0,0-10.594-4.767,39.217,39.217,0,0,0-12.448-1.589,36.351,36.351,0,0,0-15.1,2.648,19.038,19.038,0,0,0-9,7.416,19.565,19.565,0,0,0-2.913,10.329,16.164,16.164,0,0,0,3.443,10.859,23.88,23.88,0,0,0,8.475,6.091,109.3,109.3,0,0,0,13.242,3.973,73.334,73.334,0,0,1,10.859,3.178,17.05,17.05,0,0,1,6.621,3.973,8.99,8.99,0,0,1,2.648,7.151,11.572,11.572,0,0,1-5.032,9.534,26.918,26.918,0,0,1-14.831,3.708,40.724,40.724,0,0,1-13.772-2.384,30.584,30.584,0,0,1-10.594-6.356l-3.178,6.091a27.329,27.329,0,0,0,11.653,6.886,45.511,45.511,0,0,0,15.891,2.648A38.37,38.37,0,0,0,415,172.129a21.073,21.073,0,0,0,9.27-7.416,17.446,17.446,0,0,0,2.913-10.329,15.855,15.855,0,0,0-3.178-11.124" transform="translate(47.283 -98.981)" fill="#fff"/>
      <path id="Path_369" d="M276.4,99.2l-33.9,73.892h8.21l21.188-7.945h-17.48l25.955-57.736,29.4,65.682h8.21L284.081,99.2H276.4Z" transform="translate(-166.357 -98.619)" fill="#fff"/>
      <path id="Path_370" d="M333.8,146.717h9L365.846,115.2l-14.037,7.151Z" transform="translate(-15.853 -72.244)" fill="#fff"/>
      <path id="Path_371" d="M373.962,129.757,396.474,99.3H388l-22.247,30.192L343.5,99.3h-9l26.22,35.754Z" transform="translate(-14.699 -98.454)" fill="#fff"/>
      <path id="Path_372" d="M346.3,117.143l23.571,32.046h9L352.656,113.7Z" transform="translate(4.753 -74.716)" fill="#fff"/>
      <path id="Path_373" d="M363.4,115.191l7.945-2.913V99.3H363.4Z" transform="translate(32.942 -98.454)" fill="#fff"/>
      <path id="Path_374" d="M363.4,163.861h7.945V104.8l-7.945,3.973Z" transform="translate(32.942 -89.388)" fill="#fff"/>
      <path id="Path_375" d="M334.7,99.2l-33.9,73.892h8.21l21.188-7.945H312.453l25.955-57.736,29.4,65.682h8.21L342.116,99.2H334.7Z" transform="translate(-70.252 -98.619)" fill="#fff"/>
      <path id="Path_376" d="M237.454,109.859a34.7,34.7,0,0,1,16.156-3.973,30.34,30.34,0,0,1,22.247,8.74l4.767-5.032a30.46,30.46,0,0,0-11.918-7.945,45.939,45.939,0,0,0-35.754,2.119,36.187,36.187,0,0,0-14.037,13.507,37.313,37.313,0,0,0,14.037,51.91,40.029,40.029,0,0,0,19.863,4.767,46.993,46.993,0,0,0,14.831-2.384,39.3,39.3,0,0,0,12.183-6.886V142.964l-7.416,3.443v15.1a31.227,31.227,0,0,1-19.334,5.562,34.7,34.7,0,0,1-16.156-3.973,31.979,31.979,0,0,1-11.388-10.859,29.265,29.265,0,0,1-3.973-15.626,31.882,31.882,0,0,1,3.973-15.626,36.565,36.565,0,0,1,11.918-11.124" transform="translate(-213.75 -98.949)" fill="#fff"/>
      <path id="Path_377" d="M279.6,99.2Z" transform="translate(-105.199 -98.619)" fill="#fff"/>
      <path id="Path_378" d="M284.545,99.3l-7.945,3.443v70.184h49.261v-6.886H284.545Z" transform="translate(-110.144 -98.454)" fill="#fff"/>
    </g>
    <g id="Group_1649" transform="translate(375.37 405.157)">
      <path id="Path_379" d="M261.867,123.512a23.621,23.621,0,0,1,9,6.091,24.559,24.559,0,0,1-36.284,33.106,29.972,29.972,0,0,1-2.648-3.443,13.532,13.532,0,0,0-12.713-6.886,13.321,13.321,0,0,0-12.183,12.183A13.106,13.106,0,0,0,218.168,178.6a35.493,35.493,0,0,0,5.3-.265h1.324c3.443,2.119,6.621,4.5,9.8,6.886a22.751,22.751,0,0,1-10.064,4.238,24.673,24.673,0,0,1-9.27-48.467h0a39.807,39.807,0,0,1,5.3-.53,13.285,13.285,0,1,0-2.119-26.485c-.794,0-1.589.265-2.119.265a13.133,13.133,0,0,0-9.8,10.064c0,.53-.53.795-.795,1.324-3.178,1.589-6.621,3.443-9.8,5.032h-.53a24.36,24.36,0,0,1,34.695-25.69,24.859,24.859,0,0,1,12.183,32.311c-.53,1.059-.794,1.854-1.324,2.913a13,13,0,0,0,6.621,17.215,10.091,10.091,0,0,0,2.648.795,13.679,13.679,0,0,0,14.831-6.886,12.962,12.962,0,0,0-2.913-15.891c-.53-.265-.53-.795-.795-1.324.265-3.708.53-7.416.795-10.859C261.867,123.777,261.867,123.512,261.867,123.512Z" transform="translate(-180.953 -88.143)" fill="#fff"/>
      <path id="Path_380" d="M265.1,146.286a9.7,9.7,0,0,1,6.091,9.534,9.48,9.48,0,0,1-9.27,8.74,9.25,9.25,0,0,1-8.21-14.037,28.466,28.466,0,0,0-43.17-35.489,28.677,28.677,0,0,0-9.8,16.156,25.142,25.142,0,0,0,.265,10.859,1.751,1.751,0,0,1-.265,1.589c-2.384,2.648-5.032,5.3-7.416,7.945A38.245,38.245,0,0,1,250.8,104.705a37.871,37.871,0,0,1,14.3,41.581Z" transform="translate(-189.749 -97.146)" fill="#fff"/>
      <path id="Path_381" d="M258.919,179.679a33.7,33.7,0,0,1-10.064,9.27A38.433,38.433,0,1,1,208.069,123.8a41.738,41.738,0,0,1,9.27-4.238,1.326,1.326,0,0,0,1.324-1.589h0a9.415,9.415,0,0,1,18.8-.53,9.2,9.2,0,0,1-8.21,10.064h0a38.625,38.625,0,0,0-12.183,2.648,28.569,28.569,0,0,0,6.886,54.293,27.912,27.912,0,0,0,22.512-6.091,2.2,2.2,0,0,1,2.119-.53C252.3,178.354,255.476,178.884,258.919,179.679Z" transform="translate(-189.394 -78.099)" fill="#fff"/>
      <path id="Path_382" d="M247.917,104.8a38.355,38.355,0,0,1-10.329,76.011,37.516,37.516,0,0,1-21.717-10.594,9.337,9.337,0,0,1-9.8.265,9.244,9.244,0,0,1-4.767-9.8A9.536,9.536,0,0,1,212.163,153a9.3,9.3,0,0,1,6.356,4.5,27.479,27.479,0,0,0,23.836,13.772c15.626.265,28.868-12.183,29.133-27.809a28.563,28.563,0,0,0-19.069-27.544,1.679,1.679,0,0,1-1.324-1.589,32.031,32.031,0,0,0-1.324-4.767C248.976,107.713,248.446,106.389,247.917,104.8Z" transform="translate(-170.976 -84.528)" fill="#fff"/>
    </g>
  </g>
</svg>
